<?xml version="1.0" encoding="UTF-8" standalone="no"?>
<!-- Generator: Adobe Illustrator 14.0.0, SVG Export Plug-In . SVG Version: 6.00 Build 43363)  -->

<svg
   xmlns:dc="http://purl.org/dc/elements/1.1/"
   xmlns:cc="http://creativecommons.org/ns#"
   xmlns:rdf="http://www.w3.org/1999/02/22-rdf-syntax-ns#"
   xmlns:svg="http://www.w3.org/2000/svg"
   xmlns="http://www.w3.org/2000/svg"
   xmlns:sodipodi="http://sodipodi.sourceforge.net/DTD/sodipodi-0.dtd"
   xmlns:inkscape="http://www.inkscape.org/namespaces/inkscape"
   version="1.0"
   id="Layer_1"
   x="0px"
   y="0px"
   width="100px"
   height="88.399px"
   viewBox="0 0 100 88.399"
   enable-background="new 0 0 100 88.399"
   xml:space="preserve"
   inkscape:version="0.48.1 "
   sodipodi:docname="icon.svg"><metadata
   id="metadata10"><rdf:RDF><cc:Work
       rdf:about=""><dc:format>image/svg+xml</dc:format><dc:type
         rdf:resource="http://purl.org/dc/dcmitype/StillImage" /><dc:title></dc:title></cc:Work></rdf:RDF></metadata><defs
   id="defs8" /><sodipodi:namedview
   pagecolor="#ffffff"
   bordercolor="#666666"
   borderopacity="1"
   objecttolerance="10"
   gridtolerance="10"
   guidetolerance="10"
   inkscape:pageopacity="0"
   inkscape:pageshadow="2"
   inkscape:window-width="811"
   inkscape:window-height="653"
   id="namedview6"
   showgrid="false"
   inkscape:zoom="3.2918924"
   inkscape:cx="139.26709"
   inkscape:cy="-106.98249"
   inkscape:window-x="394"
   inkscape:window-y="278"
   inkscape:window-maximized="0"
   inkscape:current-layer="Layer_1" />

<path
   id="path3432"
   d="m 117.90383,-2.9507311 c -2.18246,0.3435806 -4.04312,1.6791888 -5.09564,3.53258718 L -1.0620891,199.99156 c -1.2460836,2.19456 -1.2533425,5.01095 0,7.19582 1.27511888,2.21634 3.6221116,3.66566 6.1771884,3.66566 H 232.8484 c 2.55265,0 4.90449,-1.44932 6.17477,-3.66566 1.25092,-2.18245 1.24609,-4.99883 0,-7.19582 L 125.16015,0.58185608 C 123.69388,-1.987738 120.8654,-3.4152903 117.90383,-2.9507311 z M 118.97812,19.996568 215.6597,192.11823 H 22.165881 L 118.97812,19.996568 z"
   style="fill:#ffff00"
   inkscape:connector-curvature="0"
   inkscape:export-filename="C:\Users\cottrell\dev\windows phone\com.iCottrell.CanuckProductSafety\com.iCottrell.CanuckProductSafety\img\polygon3.png"
   inkscape:export-xdpi="142.5291"
   inkscape:export-ydpi="142.5291" />
<path
   inkscape:connector-curvature="0"
   id="maple_leaf_2_"
   d="m 119.80368,77.548431 -8.28545,16.15839 c -0.94072,1.756092 -2.62503,1.593234 -4.3104,0.612864 l -6.00007,-3.248605 4.47112,24.81992 c 0.94073,4.53433 -2.07645,4.53433 -3.56468,2.57467 l -10.470115,-12.25514 -1.700378,6.224 c -0.194997,0.81644 -1.056439,1.67466 -2.349669,1.47109 l -13.23979,-2.9111 3.477895,13.21836 c 0.743582,2.9411 1.325372,4.15933 -0.751077,4.93505 l -4.718624,2.3186 22.789537,19.3545 c 0.902153,0.73179 1.358587,2.04859 1.037154,3.24003 l -1.995021,6.84544 c 7.847228,-0.94715 14.882308,-1.79359 22.729538,-2.73753 0.69643,-0.01 1.85252,0.60964 1.84716,1.45072 l -1.03929,25.07172 h 3.81539 l -0.6,-25.01814 c -0.005,-0.84109 1.04358,-1.51394 1.74109,-1.5043 7.84616,0.94394 14.88231,1.79038 22.72846,2.73753 l -1.99287,-6.84544 c -0.32143,-1.19144 0.1339,-2.50931 1.03608,-3.24003 l 22.79061,-19.3545 -4.7197,-2.3186 c -2.07645,-0.77572 -1.49573,-1.99395 -0.75001,-4.93505 l 3.47683,-13.21836 -13.23872,2.9111 c -1.29323,0.20358 -2.15574,-0.65358 -2.35074,-1.47109 l -1.70037,-6.224 -10.46905,12.25514 c -1.4893,1.96074 -4.50541,1.96074 -3.56468,-2.57467 l 4.47112,-24.81992 -6.00007,3.248605 c -1.6843,0.981442 -3.36968,1.143228 -4.30933,-0.612864 l -8.29188,-16.15839 z"
   style="fill:#ff0000"
   inkscape:export-filename="C:\Users\cottrell\dev\windows phone\com.iCottrell.CanuckProductSafety\com.iCottrell.CanuckProductSafety\img\polygon3.png"
   inkscape:export-xdpi="142.5291"
   inkscape:export-ydpi="142.5291" /><path
   inkscape:connector-curvature="0"
   id="path3432-2"
   d="m 119.0686,19.418145 c -1.84168,0.289932 -3.41181,1.416993 -4.29998,2.980992 L 18.678566,190.67209 c -1.051516,1.85191 -1.057641,4.22853 0,6.07224 1.076014,1.87028 3.056538,3.0933 5.212654,3.0933 h 192.17399 c 2.15407,0 4.13867,-1.22302 5.21061,-3.0933 1.05561,-1.84167 1.05152,-4.2183 0,-6.07224 L 125.19189,22.399137 c -1.23732,-2.168365 -3.62415,-3.373014 -6.12329,-2.980992 z m 0.90655,19.364204 81.58527,145.245811 H 38.279614 L 119.97515,38.782349 z"
   inkscape:export-filename="C:\Users\cottrell\dev\windows phone\com.iCottrell.CanuckProductSafety\com.iCottrell.CanuckProductSafety\img\polygon3.png"
   inkscape:export-xdpi="142.5291"
   inkscape:export-ydpi="142.5291" /><polygon
   transform="matrix(1.625901,0,0,1.625901,41.618707,46.732048)"
   points="45.389,65.9 46.842,74.89 53.192,67.369 49.262,68.322 59,47.189 41.398,52.691 54.1,28.476 47.749,28.66 35.955,57.829 52.468,52.143 48.217,68.123 "
   id="polygon3"
   inkscape:export-xdpi="142.5291"
   inkscape:export-ydpi="142.5291" /></svg>